<?xml version="1.0" encoding="us-ascii" standalone="no"?><svg xmlns="http://www.w3.org/2000/svg" xmlns:xlink="http://www.w3.org/1999/xlink" contentStyleType="text/css" height="583px" preserveAspectRatio="none" style="width:288px;height:583px;background:#FFFFFF;" version="1.1" viewBox="0 0 288 583" width="288px" zoomAndPan="magnify"><defs/><g><!--cluster Blog System--><g id="cluster_Blog System"><rect fill="none" height="570" rx="2.5" ry="2.5" style="stroke:#181818;stroke-width:1.0;" width="193" x="89" y="7"/><text fill="#000000" font-family="sans-serif" font-size="14" font-weight="bold" lengthAdjust="spacing" textLength="86" x="142.5" y="23.5332">Blog System</text></g><g id="elem_UC_ViewArticles"><ellipse cx="185.7427" cy="60.1485" fill="#F1F1F1" rx="73.7427" ry="17.1485" style="stroke:#181818;stroke-width:0.5;"/><text fill="#000000" font-family="sans-serif" font-size="14" lengthAdjust="spacing" textLength="98" x="133.7427" y="64.6651">View All Articles</text></g><g id="elem_UC_ViewArticle"><ellipse cx="185.2827" cy="130.9565" fill="#F1F1F1" rx="80.2827" ry="18.4565" style="stroke:#181818;stroke-width:0.5;"/><text fill="#000000" font-family="sans-serif" font-size="14" lengthAdjust="spacing" textLength="115" x="126.9192" y="134.9341">View Single Article</text></g><g id="elem_UC_AddComments"><ellipse cx="185.4259" cy="201.7852" fill="#F1F1F1" rx="71.9259" ry="16.7852" style="stroke:#181818;stroke-width:0.5;"/><text fill="#000000" font-family="sans-serif" font-size="14" lengthAdjust="spacing" textLength="93" x="135.9259" y="206.3018">Add comments</text></g><g id="elem_UC_ViewComments"><ellipse cx="185.376" cy="271.0752" fill="#F1F1F1" rx="73.376" ry="17.0752" style="stroke:#181818;stroke-width:0.5;"/><text fill="#000000" font-family="sans-serif" font-size="14" lengthAdjust="spacing" textLength="97" x="133.876" y="275.5918">View comments</text></g><g id="elem_UC_CrudArticles"><ellipse cx="185.4169" cy="338.8834" fill="#F1F1F1" rx="67.4169" ry="15.8834" style="stroke:#181818;stroke-width:0.5;"/><text fill="#000000" font-family="sans-serif" font-size="14" lengthAdjust="spacing" textLength="80" x="142.4169" y="343.4">Crud articles</text></g><g id="elem_UC_CrudCategories"><ellipse cx="185.3525" cy="407.8705" fill="#F1F1F1" rx="74.8525" ry="17.3705" style="stroke:#181818;stroke-width:0.5;"/><text fill="#000000" font-family="sans-serif" font-size="14" lengthAdjust="spacing" textLength="101" x="131.8525" y="412.3871">Crud categories</text></g><g id="elem_UC_CrudTags"><ellipse cx="185.7356" cy="476.0492" fill="#F1F1F1" rx="55.7356" ry="15.5492" style="stroke:#181818;stroke-width:0.5;"/><text fill="#000000" font-family="sans-serif" font-size="14" lengthAdjust="spacing" textLength="62" x="151.7356" y="480.5658">Crud tags</text></g><g id="elem_UC_CrudComments"><ellipse cx="185.6111" cy="544.2222" fill="#F1F1F1" rx="74.1111" ry="17.2222" style="stroke:#181818;stroke-width:0.5;"/><text fill="#000000" font-family="sans-serif" font-size="14" lengthAdjust="spacing" textLength="99" x="133.1111" y="548.7388">Crud comments</text></g><!--entity user--><g id="elem_user"><ellipse cx="25.5" cy="136.5" fill="#F1F1F1" rx="8" ry="8" style="stroke:#181818;stroke-width:0.5;"/><path d="M25.5,144.5 L25.5,171.5 M12.5,152.5 L38.5,152.5 M25.5,171.5 L12.5,186.5 M25.5,171.5 L38.5,186.5 " fill="none" style="stroke:#181818;stroke-width:0.5;"/><text fill="#000000" font-family="sans-serif" font-size="14" lengthAdjust="spacing" textLength="29" x="11" y="202.5332">User</text></g><!--entity admin--><g id="elem_admin"><ellipse cx="25.5" cy="411.5" fill="#F1F1F1" rx="8" ry="8" style="stroke:#181818;stroke-width:0.5;"/><path d="M25.5,419.5 L25.5,446.5 M12.5,427.5 L38.5,427.5 M25.5,446.5 L12.5,461.5 M25.5,446.5 L38.5,461.5 " fill="none" style="stroke:#181818;stroke-width:0.5;"/><text fill="#000000" font-family="sans-serif" font-size="14" lengthAdjust="spacing" textLength="39" x="6" y="477.5332">Admin</text></g><!--link user to UC_ViewArticle--><g id="link_user_UC_ViewArticle"><path d="M40.25,163.87 C59.62,159.45 96.09,151.14 127.52,143.98 " fill="none" id="user-UC_ViewArticle" style="stroke:#181818;stroke-width:1.0;"/></g><!--link user to UC_ViewArticles--><g id="link_user_UC_ViewArticles"><path d="M40.01,142.24 C49.61,126.72 63.83,107.37 81,95 C95.77,84.35 114.02,76.77 131.06,71.45 " fill="none" id="user-UC_ViewArticles" style="stroke:#181818;stroke-width:1.0;"/></g><!--link user to UC_AddComments--><g id="link_user_UC_AddComments"><path d="M40.25,170.04 C60.59,174.55 99.81,183.24 132.23,190.42 " fill="none" id="user-UC_AddComments" style="stroke:#181818;stroke-width:1.0;"/></g><!--link user to UC_ViewComments--><g id="link_user_UC_ViewComments"><path d="M40.01,190.38 C49.71,205.31 64.03,224.04 81,236 C95.96,246.55 114.35,254.12 131.45,259.46 " fill="none" id="user-UC_ViewComments" style="stroke:#181818;stroke-width:1.0;"/></g><!--link admin to UC_CrudArticles--><g id="link_admin_UC_CrudArticles"><path d="M45.04,411.06 C54.37,397.74 66.73,382.97 81,373 C96.58,362.11 115.88,354.53 133.58,349.34 " fill="none" id="admin-UC_CrudArticles" style="stroke:#181818;stroke-width:1.0;"/></g><!--link admin to UC_CrudCategories--><g id="link_admin_UC_CrudCategories"><path d="M45.25,437.97 C66.01,433.5 100.44,426.09 129.87,419.76 " fill="none" id="admin-UC_CrudCategories" style="stroke:#181818;stroke-width:1.0;"/></g><!--link admin to UC_CrudTags--><g id="link_admin_UC_CrudTags"><path d="M45.25,446.03 C68.71,451.08 109.62,459.89 141.05,466.65 " fill="none" id="admin-UC_CrudTags" style="stroke:#181818;stroke-width:1.0;"/></g><!--link admin to UC_CrudComments--><g id="link_admin_UC_CrudComments"><path d="M45.24,471.97 C54.62,484.9 66.96,499.25 81,509 C96.03,519.44 114.44,526.98 131.54,532.33 " fill="none" id="admin-UC_CrudComments" style="stroke:#181818;stroke-width:1.0;"/></g><!--SRC=[RP913eCW44Ntd6BYtaDOZs3jjY4mfIGe2OnfcgPtBn1BXU96VV__cM7Ku8s0B3YjxWHIEnIaxSgu8EjWzkY0UzZ2VKU3NFGQ6OyFZCK0NvL1w4x6AfYUdd3fuCKWN24ek0_QHUC31cDWSAI5GT_56lDuZSANDIAJJhLtHoDKPWOfGTXbmPLoXy367JKQrEu8ixtqZswJmAlv8spFd-o24ohhT1aOCsr4YAl2V0xlhShLuAbk7lpD68jV3Vg-NbWR-oC_hgoo_rga7s1NYYtKmk6qjPJEzkVFBJu0]--></g></svg>