<?xml version="1.0" encoding="us-ascii" standalone="no"?><svg xmlns="http://www.w3.org/2000/svg" xmlns:xlink="http://www.w3.org/1999/xlink" contentStyleType="text/css" height="582px" preserveAspectRatio="none" style="width:288px;height:582px;background:#FFFFFF;" version="1.1" viewBox="0 0 288 582" width="288px" zoomAndPan="magnify"><defs/><g><!--cluster Blog System--><g id="cluster_Blog System"><rect fill="none" height="569" rx="2.5" ry="2.5" style="stroke:#181818;stroke-width:1.0;" width="193" x="89" y="7"/><text fill="#000000" font-family="sans-serif" font-size="14" font-weight="bold" lengthAdjust="spacing" textLength="86" x="142.5" y="23.5332">Blog System</text></g><g id="elem_UC_ViewArticles"><ellipse cx="185.7427" cy="202.1485" fill="#F1F1F1" rx="73.7427" ry="17.1485" style="stroke:#181818;stroke-width:0.5;"/><text fill="#000000" font-family="sans-serif" font-size="14" lengthAdjust="spacing" textLength="98" x="133.7427" y="206.6651">View All Articles</text></g><g id="elem_UC_ViewArticle"><ellipse cx="185.2827" cy="61.9565" fill="#F1F1F1" rx="80.2827" ry="18.4565" style="stroke:#181818;stroke-width:0.5;"/><text fill="#000000" font-family="sans-serif" font-size="14" lengthAdjust="spacing" textLength="115" x="126.9192" y="65.9341">View Single Article</text></g><g id="elem_UC_AddComments"><ellipse cx="185.4259" cy="132.7852" fill="#F1F1F1" rx="71.9259" ry="16.7852" style="stroke:#181818;stroke-width:0.5;"/><text fill="#000000" font-family="sans-serif" font-size="14" lengthAdjust="spacing" textLength="93" x="135.9259" y="137.3018">Add comments</text></g><g id="elem_UC_CrudArticles"><ellipse cx="185.4169" cy="336.8834" fill="#F1F1F1" rx="67.4169" ry="15.8834" style="stroke:#181818;stroke-width:0.5;"/><text fill="#000000" font-family="sans-serif" font-size="14" lengthAdjust="spacing" textLength="80" x="142.4169" y="341.4">Crud articles</text></g><g id="elem_UC_CrudCategories"><ellipse cx="185.3525" cy="405.8705" fill="#F1F1F1" rx="74.8525" ry="17.3705" style="stroke:#181818;stroke-width:0.5;"/><text fill="#000000" font-family="sans-serif" font-size="14" lengthAdjust="spacing" textLength="101" x="131.8525" y="410.3871">Crud categories</text></g><g id="elem_UC_CrudTags"><ellipse cx="185.7356" cy="270.0492" fill="#F1F1F1" rx="55.7356" ry="15.5492" style="stroke:#181818;stroke-width:0.5;"/><text fill="#000000" font-family="sans-serif" font-size="14" lengthAdjust="spacing" textLength="62" x="151.7356" y="274.5658">Crud tags</text></g><g id="elem_UC_CrudUsers"><ellipse cx="185.6463" cy="474.0942" fill="#F1F1F1" rx="61.6463" ry="15.5942" style="stroke:#181818;stroke-width:0.5;"/><text fill="#000000" font-family="sans-serif" font-size="14" lengthAdjust="spacing" textLength="70" x="147.6463" y="478.6108">Crud users</text></g><g id="elem_UC_ValidateArticles"><ellipse cx="185.481" cy="541.7962" fill="#F1F1F1" rx="74.481" ry="17.2962" style="stroke:#181818;stroke-width:0.5;"/><text fill="#000000" font-family="sans-serif" font-size="14" lengthAdjust="spacing" textLength="100" x="132.481" y="546.3128">Validate articles</text></g><!--entity user--><g id="elem_user"><ellipse cx="25.5" cy="102.5" fill="#F1F1F1" rx="8" ry="8" style="stroke:#181818;stroke-width:0.5;"/><path d="M25.5,110.5 L25.5,137.5 M12.5,118.5 L38.5,118.5 M25.5,137.5 L12.5,152.5 M25.5,137.5 L38.5,152.5 " fill="none" style="stroke:#181818;stroke-width:0.5;"/><text fill="#000000" font-family="sans-serif" font-size="14" lengthAdjust="spacing" textLength="29" x="11" y="168.5332">User</text></g><!--entity editor--><g id="elem_editor"><ellipse cx="25.5" cy="284.5" fill="#F1F1F1" rx="8" ry="8" style="stroke:#181818;stroke-width:0.5;"/><path d="M25.5,292.5 L25.5,319.5 M12.5,300.5 L38.5,300.5 M25.5,319.5 L12.5,334.5 M25.5,319.5 L38.5,334.5 " fill="none" style="stroke:#181818;stroke-width:0.5;"/><text fill="#000000" font-family="sans-serif" font-size="14" lengthAdjust="spacing" textLength="37" x="7" y="350.5332">Editor</text></g><!--entity admin--><g id="elem_admin"><ellipse cx="25.5" cy="397.5" fill="#F1F1F1" rx="8" ry="8" style="stroke:#181818;stroke-width:0.5;"/><path d="M25.5,405.5 L25.5,432.5 M12.5,413.5 L38.5,413.5 M25.5,432.5 L12.5,447.5 M25.5,432.5 L38.5,447.5 " fill="none" style="stroke:#181818;stroke-width:0.5;"/><text fill="#000000" font-family="sans-serif" font-size="14" lengthAdjust="spacing" textLength="39" x="6" y="463.5332">Admin</text></g><!--link user to UC_ViewArticle--><g id="link_user_UC_ViewArticle"><path d="M40.31,122.83 C51.02,115.27 66.44,105.08 81,98 C98.11,89.68 117.64,82.36 135.1,76.54 " fill="none" id="user-UC_ViewArticle" style="stroke:#181818;stroke-width:1.0;"/></g><!--link user to UC_ViewArticles--><g id="link_user_UC_ViewArticles"><path d="M40.33,142.89 C51.05,150.23 66.48,160.13 81,167 C99.17,175.6 120.04,183.08 138.26,188.89 " fill="none" id="user-UC_ViewArticles" style="stroke:#181818;stroke-width:1.0;"/></g><!--link user to UC_AddComments--><g id="link_user_UC_AddComments"><path d="M40.25,133 C56.76,133 85.72,133 113.38,133 " fill="none" id="user-UC_AddComments" style="stroke:#181818;stroke-width:1.0;"/></g><!--link editor to UC_CrudArticles--><g id="link_editor_UC_CrudArticles"><path d="M44.01,317.44 C63.94,320.21 97.52,324.89 126.86,328.97 " fill="none" id="editor-UC_CrudArticles" style="stroke:#181818;stroke-width:1.0;"/></g><!--link editor to UC_CrudCategories--><g id="link_editor_UC_CrudCategories"><path d="M44.02,336.97 C53.88,348.14 67.01,361.18 81,370 C96.93,380.04 116.02,387.7 133.44,393.32 " fill="none" id="editor-UC_CrudCategories" style="stroke:#181818;stroke-width:1.0;"/></g><!--link editor to UC_CrudTags--><g id="link_editor_UC_CrudTags"><path d="M44.01,310.01 C68.44,303.06 113.39,290.25 145.87,281 " fill="none" id="editor-UC_CrudTags" style="stroke:#181818;stroke-width:1.0;"/></g><!--link admin to UC_CrudArticles--><g id="link_admin_UC_CrudArticles"><path d="M45.02,403.68 C54.69,392.4 67.33,379.62 81,371 C97.48,360.61 117.45,353.08 135.44,347.78 " fill="none" id="admin-UC_CrudArticles" style="stroke:#181818;stroke-width:1.0;"/></g><!--link admin to UC_CrudCategories--><g id="link_admin_UC_CrudCategories"><path d="M45.25,425.39 C63.88,422.79 93.54,418.67 120.7,414.88 " fill="none" id="admin-UC_CrudCategories" style="stroke:#181818;stroke-width:1.0;"/></g><!--link admin to UC_CrudTags--><g id="link_admin_UC_CrudTags"><path d="M39.56,388.84 C50.93,356.86 67.64,315.05 81,303 C95.98,289.48 116.52,281.5 135.35,276.78 " fill="none" id="admin-UC_CrudTags" style="stroke:#181818;stroke-width:1.0;"/></g><!--link admin to UC_CrudUsers--><g id="link_admin_UC_CrudUsers"><path d="M45.25,433.46 C69.6,440.55 112.78,453.12 144.62,462.39 " fill="none" id="admin-UC_CrudUsers" style="stroke:#181818;stroke-width:1.0;"/></g><!--link admin to UC_ValidateArticles--><g id="link_admin_UC_ValidateArticles"><path d="M45.18,465 C54.25,479.82 66.37,495.96 81,507 C95.08,517.63 112.59,525.15 129.18,530.43 " fill="none" id="admin-UC_ValidateArticles" style="stroke:#181818;stroke-width:1.0;"/></g><!--SRC=[RP91RiGW34NtFeML_HmYZNg2wNHR8V0mbaYGW55LLRrxSS94WP0Dv7txu_pWw9umUGni7maD1zA9_G9A9n_m5YcWYlZCQq7lXcN9aDPTmQEPUH6gP0CWFcgnZd1uSzxYzISccWVy1SnFzjCgPksJwHj7vt0CYRMZE8Z7RVeIuSKwBLTUlKj5fwdk6Or1xUUPbhIVaDbK4DJLKtWQLCr00li3hULQ9R8-SDqmxRJJafIjYZ_oUsyI2RygbB_IXg8SctpOQUoNi8yEVm0WbdYvj9drSJpoAhNj1XIb2kYa798uQTk7mtfpUcQjSF1gfTMgXLjUHtfEvHy0]--></g></svg>
